<svg width="118" height="96" fill="none" xmlns="http://www.w3.org/2000/svg"><path d="M36.224 74.185l1.394-38.276 16.579 27.695L75.265 46.74l-17.558-2.667 11.338-19.345-21.097 8.329L37.632 0 25.895 35.252 4.576 30.968l31.648 43.216z" fill="#FC3F34"/><path d="M117.114 28.388l-35.93 2.946a.815.815 0 00-.3 1.537 41.36 41.36 0 0110.723 7.192L36.195 84.236 9.072 51.172 0 56.892l29.64 38.225h11.302l57.149-45.468a42.168 42.168 0 012.695 12.154.813.813 0 001.182.642.812.812 0 00.362-.37l15.606-32.55a.817.817 0 00-.413-1.063.82.82 0 00-.409-.074z" fill="#FC3F34"/></svg>