<svg width="79" height="91" fill="none" xmlns="http://www.w3.org/2000/svg"><path d="M37.441 9.38c3.787 0 7.457.582 10.894 1.63V0H26.527v10.991a37.447 37.447 0 0110.895-1.63l.02.019zm34.741 16.408l6.35-6.37-7.03-7.01-6.428 6.448a37.545 37.545 0 017.108 6.932zm1.962 19.614c-3.166-15.477-15.886-27.44-31.713-29.556-.368-.059-.737-.136-1.106-.175-.641-.058-1.32-.078-1.962-.097-.602-.039-1.204-.097-1.825-.097h-.078c-16.196 0-29.964 10.311-35.188 24.701a11.81 11.81 0 00-.272.758 24.888 24.888 0 00-.524 1.709 53.33 53.33 0 00-.486 1.883c-.097.447-.213.913-.29 1.38a41.622 41.622 0 00-.428 2.757c-.039.291-.058.602-.097.893C.078 50.684 0 51.811 0 52.937c0 1.806.175 3.573.427 5.302C3.01 76.415 18.584 90.397 37.46 90.397s34.45-13.982 37.033-32.159c.253-1.747.427-3.495.427-5.301 0-2.583-.272-5.088-.757-7.535h-.02zm-36.626-12.37l-.097.31.097 19.032a.646.646 0 01-.97.563l-4.68-2.7-20.294-11.729-1.65-1.087c5.437-9.593 15.73-16.099 27.536-16.099h.078v11.73l-.02-.02z" fill="#FC3F34"/></svg>