<svg width="60" height="56" fill="none" xmlns="http://www.w3.org/2000/svg"><path d="M24.678 40.838L10.11 26.188l5.777-5.927 11.6 11.665 26.59-28.143L60 9.556 30.525 40.76l-5.853.077h.006zM46.91 27.72c0 .095.006.185.006.28 0 10.843-8.68 19.66-19.353 19.66C16.89 47.66 8.21 38.843 8.21 28S16.89 8.34 27.563 8.34c5.085 0 9.712 2.002 13.166 5.267l5.689-6.023C41.486 2.884 34.858 0 27.563 0 12.34 0 0 12.534 0 28c0 15.465 12.339 28 27.563 28 15.225 0 27.564-12.535 27.564-28 0-2.717-.388-5.338-1.097-7.822l-7.12 7.536v.006z" fill="#000"/></svg>