<svg width="46" height="51" fill="none" xmlns="http://www.w3.org/2000/svg"><path d="M31.053 0H8.902v8.704H0v13.517h8.902v28.04H46V14.947L31.053 0zm1.172 6.896l6.88 6.88h-6.88v-6.88zm9.736 39.328h-29.02v-24H24.4V8.706H12.94V4.041h15.245v11.756l2.02 2.02H41.96v28.41-.003z" fill="#000"/><path d="M39.468 26.64H15.433v2.917h24.035V26.64zm0 6.282H15.433v2.917h24.035v-2.917zm0 6.282H15.433v2.917h24.035v-2.917z" fill="#000"/><path d="M4.425 18.885V12.87h2.49c.454 0 .858.08 1.212.24.355.16.636.393.837.696.205.303.306.668.306 1.095 0 .426-.095.799-.283 1.102a1.794 1.794 0 01-.82.69c-.356.16-.787.239-1.29.239h-.872v1.95h-1.58v.002zm1.58-3.26h.817c.271 0 .484-.055.637-.16.152-.105.229-.285.229-.536 0-.252-.079-.44-.238-.548-.16-.107-.366-.161-.622-.161h-.825v1.404h.002zm4.133 3.26V12.87h2.123c.633 0 1.187.128 1.665.38.475.253.848.605 1.113 1.058.264.454.397.977.397 1.569 0 .447-.076.855-.227 1.225-.15.37-.368.687-.646.951a2.91 2.91 0 01-1.003.615 3.67 3.67 0 01-1.297.218H10.14l-.002-.002zm1.58-1.475h.48c.236 0 .449-.03.64-.094a1.313 1.313 0 00.823-.77 1.79 1.79 0 00.114-.668c0-.339-.067-.622-.2-.85a1.27 1.27 0 00-.554-.517 1.862 1.862 0 00-.823-.172h-.48v3.071zm4.709 1.475V12.87h4.042v1.438h-2.462v1.082h2.195v1.382h-2.195v2.11h-1.58v.002z" fill="#FF3D29"/></svg>