<svg width="1800" height="174" fill="none" xmlns="http://www.w3.org/2000/svg"><path d="M0 65.222v106.534L185.007 52.211l-61.929 83.909c-10.905 14.777-.34 35.636 18.005 35.636h61.827V63.048c0-13.453-10.905-24.392-24.391-24.392H26.565C11.89 38.656 0 50.546 0 65.222zM235.522.063L181.066 17.22c-1.257.407-1.189 2.174.068 2.48 6.998 1.664 17.631 4.688 26.226 12.705 8.798 8.187 12.399 18.242 14.641 25.037.408 1.257 2.209 1.155 2.48-.136l12.672-55.713c.237-.985-.714-1.834-1.665-1.529h.034zM449.575 66.41v104.325h-51.942V95.863h-55.169v74.872h-51.942V66.41h159.053zm505.866 0H803.216v29.453h50.141v74.872H905.3V95.863h50.141V66.41zm-161.397 52.146c0 46.438-29.25 55.033-79.493 55.033-50.243 0-79.493-8.595-79.493-55.033 0-46.44 29.25-55.034 79.493-55.034 50.243 0 79.493 8.595 79.493 55.034zm-51.942 0c-.646-11.992-2.208-25.479-27.585-25.479-25.376 0-26.939 13.487-27.585 25.479.646 11.991 2.209 25.478 27.585 25.478 25.377 0 26.939-13.487 27.585-25.478zm-122.738-9.546c0 46.438-39.305 42.26-79.493 42.6h-18.786v19.091h-51.942V66.376h70.694c40.188.34 79.493-3.805 79.493 42.6l.034.034zm-51.942 0c0-11.992-4.145-13.181-27.585-13.181h-18.786v26.328h18.786c23.44 0 27.585-1.155 27.585-13.181v.034zm1058.038 9.546c0 46.438-29.25 55.033-79.5 55.033-50.24 0-79.49-8.595-79.49-55.033 0-46.44 29.25-55.034 79.49-55.034 50.25 0 79.5 8.595 79.5 55.034zm-51.95 0c-.64-11.992-2.2-25.479-27.58-25.479s-26.94 13.487-27.59 25.479c.65 11.991 2.21 25.478 27.59 25.478s26.94-13.487 27.58-25.478zm-123.01-9.546c0 46.438-39.3 42.26-79.49 42.6h-18.78v19.091h-51.95V66.376h70.7c40.19.34 79.49-3.805 79.49 42.6l.03.034zm-51.94 0c0-11.992-4.14-13.181-27.58-13.181h-18.79v26.328h18.79c23.44 0 27.58-1.155 27.58-13.181v.034zm348.68 19.397c-2.07 8.493-7.91 15.661-26.36 15.661-25.34 0-26.94-13.487-27.58-25.478.64-11.992 2.2-25.479 27.58-25.479 19.43 0 24.9 7.949 26.67 17.054H1800c-3.46-39.067-32.1-46.609-79.15-46.609-50.25 0-79.5 8.595-79.5 55.034 0 46.438 29.25 55.033 79.5 55.033 46.47 0 74.94-7.372 78.98-45.182h-52.62l.03-.034zm-641.68-32.544V66.41H975.009v104.325h130.551v-29.453h-78.61v-14.539h72.63v-18.277h-72.63V95.829h78.61v.034zM1177 66.41h-51.94v104.325h45.15l30.54-48.578H1177V66.41zm55.17 0l-30.54 48.579h23.75v55.746h51.94V66.41h-45.15zm11.21-33.496h-84.35v23.78h84.35v-23.78z" fill="#fff"/></svg>