<svg width="468" height="47" fill="none" xmlns="http://www.w3.org/2000/svg"><path d="M0 17.94v27.7l48.102-31.082L32 36.374c-2.835 3.842-.088 9.265 4.681 9.265h16.076V17.375a6.342 6.342 0 00-6.342-6.341H6.907A6.906 6.906 0 000 17.94zM61.236 1L47.077 5.46c-.326.106-.309.566.018.645 1.82.433 4.584 1.219 6.819 3.303 2.287 2.13 3.224 4.744 3.806 6.51.106.327.575.3.645-.035L61.66 1.397A.338.338 0 0061.227 1h.009z" fill="#FF3D29"/><path d="M116.89 18.25v27.124h-13.505V25.908H89.041v19.466H75.536V18.25h41.354zm131.525 0h-39.579v7.658h13.037v19.466h13.505V25.908h13.037V18.25zm-41.964 13.558c0 12.074-7.605 14.308-20.668 14.308-13.063 0-20.668-2.234-20.668-14.308s7.605-14.309 20.668-14.309c13.063 0 20.668 2.235 20.668 14.309zm-13.505 0c-.167-3.118-.574-6.625-7.172-6.625s-7.004 3.507-7.172 6.625c.168 3.118.574 6.624 7.172 6.624s7.005-3.506 7.172-6.624zm-31.912-2.482c0 12.074-10.219 10.987-20.668 11.076h-4.884v4.964h-13.505V18.24h18.381c10.448.088 20.668-.99 20.668 11.076l.008.009zm-13.504 0c0-3.118-1.078-3.427-7.172-3.427h-4.885v6.845h4.885c6.094 0 7.172-.3 7.172-3.427v.009zm275.088 2.482c0 12.074-7.604 14.308-20.668 14.308-13.063 0-20.668-2.234-20.668-14.308s7.605-14.309 20.668-14.309c13.064 0 20.668 2.235 20.668 14.309zm-13.504 0c-.168-3.118-.575-6.625-7.172-6.625-6.598 0-7.005 3.507-7.172 6.625.167 3.118.574 6.624 7.172 6.624 6.597 0 7.004-3.506 7.172-6.624zm-31.983-2.482c0 12.074-10.219 10.987-20.668 11.076h-4.885v4.964h-13.504V18.24h18.38c10.449.088 20.668-.99 20.668 11.076l.009.009zm-13.505 0c0-3.118-1.078-3.427-7.172-3.427h-4.884v6.845h4.884c6.094 0 7.172-.3 7.172-3.427v.009zm90.657 5.043c-.539 2.208-2.058 4.072-6.854 4.072-6.589 0-7.004-3.507-7.172-6.625.168-3.117.574-6.624 7.172-6.624 5.052 0 6.474 2.067 6.934 4.434H468c-.901-10.157-8.347-12.118-20.58-12.118-13.063 0-20.668 2.235-20.668 14.309s7.605 14.308 20.668 14.308c12.083 0 19.485-1.916 20.536-11.747h-13.682l.009-.009zm-166.837-8.461V18.25h-33.944v27.124h33.944v-7.657h-20.439v-3.78h18.884v-4.753h-18.884V25.9h20.439v.009zm18.574-7.658h-13.505v27.124h11.739l7.94-12.63h-6.174V18.25zm14.344 0l-7.94 12.63h6.174v14.494h13.505V18.25h-11.739zm2.915-8.71h-21.931v6.184h21.931V9.54z" fill="#fff"/></svg>