<svg width="100" height="144" fill="none" xmlns="http://www.w3.org/2000/svg"><path d="M94.641 4.4a14.276 14.276 0 00-20.184.496 14.138 14.138 0 00-3.804 10.858l-31.427 33.05a27.401 27.401 0 00-9.283-1.905V16.65l-.951-.953H1.922v-4.438H.018v6.534H1.92v-.19h26.043v113.533H1.921v-4.762H.02v5.714h.95v.953h27.945l.952-.953v-30.059a27.488 27.488 0 0013.165-3.857 27.526 27.526 0 009.669-9.743 27.573 27.573 0 00.698-26.594l31.084-32.689h.304a14.253 14.253 0 008.016-2.446 14.28 14.28 0 005.262-6.531A14.304 14.304 0 0094.64 4.495V4.4zm-64.68 93.723V50.595a23.708 23.708 0 0116.34 7.187 23.771 23.771 0 016.711 16.558A23.771 23.771 0 0146.3 90.897a23.708 23.708 0 01-16.338 7.187v.038zm21.421-39.737a27.96 27.96 0 00-8.58-7.849l28.84-30.326a14.193 14.193 0 008.408 8.02L51.382 58.386zm41.033-36.384a10.462 10.462 0 01-7.324 3.257 10.588 10.588 0 01-7.476-2.895 10.522 10.522 0 01-.38-14.84 10.532 10.532 0 017.343-3.257h.266a10.471 10.471 0 015.777 1.726 10.51 10.51 0 011.832 16.01h-.038z" fill="#fff"/><path d="M1.902 68.406H0v5.715h1.902v-5.715zm0-11.43H0v5.715h1.902v-5.715zm0-11.429H0v5.714h1.902v-5.714zm0 34.288H0v5.715h1.902v-5.715zm0 11.43H0v5.715h1.902v-5.715zm0-68.577H0v5.715h1.902v-5.715zm0 11.429H0v5.715h1.902v-5.715zm0 68.577H0v5.715h1.902v-5.715zm0 11.43H0v5.715h1.902v-5.715zm0 23.907H0v5.715h1.902v-5.715zM1.902 0H0v5.715h1.902V0z" fill="#fff"/></svg>