<svg width="117" height="109" fill="none" xmlns="http://www.w3.org/2000/svg"><path d="M6.867 83.213c.875 1.733 1.902 3.429 2.815 5.067l1.636-1.01a65.103 65.103 0 01-2.758-4.914l-1.693.857zm24.787 22.135l-.456 1.905c1.194.303 2.42.463 3.653.476.81-.005 1.62-.088 2.415-.247l-.38-1.905c-1.74.309-3.526.231-5.232-.229zM2.796 49.934l-1.902-.495A28.61 28.61 0 000 55.268h1.902c.121-1.803.42-3.59.894-5.334zm10.159 43.127a57.88 57.88 0 003.805 4.477l1.407-1.314a50.598 50.598 0 01-3.595-4.306l-1.617 1.143zm.038-52.347h.17V38.81h-.228a11.401 11.401 0 00-4.984 1.086 11.666 11.666 0 00-4.603 4.039l1.56 1.085a9.307 9.307 0 018.027-4.305h.058zM2.092 60.945l-1.902.171c.183 1.919.47 3.827.856 5.715l1.903-.381a50.216 50.216 0 01-.857-5.505zm.419 11.543c.57 1.905 1.218 3.639 1.903 5.448l1.75-.705a74.139 74.139 0 01-1.903-5.314l-1.75.571zm18.395 29.05a32.304 32.304 0 004.794 3.372l.951-1.657a32.317 32.317 0 01-4.546-3.181l-1.199 1.466zm21.135-36.041l-1.712.8a80.976 80.976 0 012.15 5.2l1.788-.647a72.271 72.271 0 00-2.226-5.353zm4.014 10.877l-1.902.496c.475 1.905.875 3.695 1.16 5.486l1.903-.286a81.857 81.857 0 00-1.16-5.695zM18.376 41.857a24.113 24.113 0 014.813 2.629l1.084-1.581a26.87 26.87 0 00-5.193-2.82l-.704 1.772zm27.508 46.08v1.258a34.117 34.117 0 01-.266 4.286l1.902.247c.195-1.503.29-3.018.285-4.533V87.86l-1.921.076zM28.82 46.6l-1.312 1.391a49.355 49.355 0 013.805 4.058l1.445-1.239a53.006 53.006 0 00-3.938-4.21zm5.954 9.925a59.165 59.165 0 012.968 4.762l1.655-.933c-.951-1.715-1.998-3.353-3.063-4.915l-1.56 1.086z" fill="#fff"/><path d="M107.159 40.847c-6.62-13.867-15.676-25.564-25.492-32.955-10.196-7.62-20.07-9.848-27.812-6.134-7.343 3.505-11.566 11.62-12.574 22.269-5.593-2.629-10.844-2.99-15.219-.914-6.011 2.876-9.512 9.962-9.854 19.944a71.61 71.61 0 007.61 32.232 72.37 72.37 0 0019.422 25.506 11.245 11.245 0 01-1.902 2.382l1.331 1.371a13.33 13.33 0 002.055-2.571 26.137 26.137 0 0014.838 5.714 14.1 14.1 0 006.164-1.371 15.577 15.577 0 007.285-8.02c7.61 6.629 15.676 10.382 22.829 10.382a18.536 18.536 0 008.065-1.772c15.942-7.543 17.312-36.574 3.254-66.063zm-42.194 63.777c-5.232 2.496-12.06.934-19.29-4.343.136-.259.257-.526.362-.8l-1.75-.724c-.043.112-.094.22-.153.324A70.816 70.816 0 0125.567 74.47a69.379 69.379 0 01-7.438-31.335c.324-9.24 3.424-15.735 8.77-18.288a12.276 12.276 0 015.346-1.18c3.104.1 6.144.915 8.883 2.38-.684 11.982 2.455 26.822 9.607 41.794a95.244 95.244 0 0020.926 29.222 13.972 13.972 0 01-6.696 7.562zm7.952-11.6A93.894 93.894 0 0154.16 66.201c-6.411-13.449-9.512-26.955-9.303-37.965l1.77 1.257a69.65 69.65 0 0119.67 25.488c6.715 14.077 8.865 28.25 6.62 38.041zm29.467 10.457c-7.762 3.715-18.11-.095-27.965-9.048 2.74-10.344.685-25.393-6.41-40.27A71.5 71.5 0 0047.767 27.97a33.551 33.551 0 00-2.834-1.905c.609-10.096 4.147-17.773 10.558-20.84a14.632 14.632 0 016.373-1.39c5.232 0 11.243 2.42 17.52 7.124 9.341 7.049 17.978 18.25 24.331 31.565 12.936 27.069 12.328 54.424-1.331 60.957zM21.933 13.74l1.351 1.334 7.039-7.048-6.81-6.8-1.332 1.352 4.451 4.457H.97V8.94h25.757l-4.794 4.8z" fill="#fff"/></svg>