<svg width="127" height="126" fill="none" xmlns="http://www.w3.org/2000/svg"><path d="M5.859 111.438a36.078 36.078 0 004.87 3.277l.932-1.658a33.282 33.282 0 01-4.603-3.105l-1.2 1.486zm3.367-22.954l1.008 1.619a42.396 42.396 0 014.928-2.61l-.8-1.733a47.786 47.786 0 00-5.136 2.724zm6.715 28.783a82.9 82.9 0 005.422 2.038l.59-1.904c-1.903-.629-3.633-1.296-5.27-1.905l-.742 1.771zm22.201 6.058c1.902.305 3.804.571 5.707.819l.228-1.905a192.476 192.476 0 01-5.707-.781l-.228 1.867zm-11.224-2.381c1.807.476 3.69.933 5.612 1.333l.38-1.905c-1.902-.4-3.804-.838-5.497-1.295l-.495 1.867zm77.824-38.194a100.363 100.363 0 00-5.535-1.6l-.476 1.905a76.45 76.45 0 015.422 1.562l.589-1.867zm10.692 4.439a57.16 57.16 0 00-5.27-2.477l-.704 1.772a50.797 50.797 0 015.08 2.38l.894-1.675zm-78.643-5.944l-.342-1.905a120.76 120.76 0 00-5.707 1.124l.437 1.905a39.547 39.547 0 015.612-1.124zm11.224-1.6l-.171-1.905c-1.903.19-3.805.4-5.707.648l.247 1.905a129.02 129.02 0 015.631-.648zM.951 96.903l1.731.781a13.903 13.903 0 013.158-4.247l-1.313-1.391a15.808 15.808 0 00-3.576 4.857zM0 101.152c.047 2.1.708 4.14 1.902 5.867l1.598-1.01a9.037 9.037 0 01-1.522-4.857H0zm115.985 11.486l.971 1.639a32.394 32.394 0 004.774-3.41l-1.255-1.429a29.927 29.927 0 01-4.49 3.2zM59.257 77.073c-1.902 0-3.804.134-5.707.229l.114 1.905c1.903-.114 3.805-.19 5.707-.229l-.114-1.905zm61.104 13.259l-1.142 1.524a18.592 18.592 0 013.805 3.81l1.541-1.125a20.552 20.552 0 00-4.204-4.21z" fill="#fff"/><path d="M111.001 115.172l-.723.304-17.749-33.869.685.133.362-1.905c-.704-.152-1.446-.266-2.17-.4L70.482 39.68a11.864 11.864 0 00.925-18.2 11.826 11.826 0 00-6.137-2.983V0h-3.805v18.497a11.847 11.847 0 00-7.092 4.036 11.877 11.877 0 000 15.34 11.846 11.846 0 007.092 4.035v57.034L21.667 84.865a97.798 97.798 0 013.976-1.258l-.513-1.905a81.518 81.518 0 00-5.498 1.753l.247.705-11.756-4.172-.628 1.79 53.97 19.05v.133h.417l44.554 15.792-.781.286.628 1.79c1.008-.343 1.998-.724 2.949-1.086l11.414 4.039.647-1.791-9.721-3.448-.571-1.371zM55.453 30.25a8.065 8.065 0 013.652-6.82 8.04 8.04 0 0110.82 1.9 8.063 8.063 0 01-2.582 11.93l-.248.134a7.61 7.61 0 01-1.693.647 8.227 8.227 0 01-1.902.267 8.041 8.041 0 01-5.69-2.36 8.063 8.063 0 01-2.357-5.698zm9.95 48.69c1.787 0 3.575 0 5.326.133V77.17c-1.788 0-3.596-.115-5.422-.134V41.947c.645-.094 1.281-.24 1.902-.439L87.66 80.54v.19h.153l17.691 33.775-40.139-14.211.038-21.354zm61.483 21.354l-1.903.191v.743a8.694 8.694 0 01-1.122 4.172l1.674.914a10.6 10.6 0 001.351-5.086 5.037 5.037 0 000-.934zM94.87 120.239l.399 1.905c1.902-.4 3.805-.877 5.593-1.372l-.514-1.905c-1.75.476-3.596.953-5.479 1.372zm-33.825 3.143v1.905h5.707v-1.905c-1.902.019-3.823.019-5.707 0zm11.357-.229l.096 1.905c1.902-.114 3.804-.247 5.707-.419l-.171-1.905a99.833 99.833 0 01-5.632.419z" fill="#fff"/><path d="M76.378 79.34c1.903.153 3.805.343 5.707.553l.229-1.905a144.88 144.88 0 00-5.707-.553l-.229 1.905zm7.306 42.804l.247 1.905c1.902-.248 3.804-.534 5.707-.838l-.324-1.905c-1.845.324-3.709.59-5.63.838zm-34.128 2.571c1.902.172 3.804.286 5.707.381l.095-1.904c-1.902 0-3.805-.21-5.707-.362l-.095 1.885z" fill="#fff"/></svg>