<svg width="114" height="115" fill="none" xmlns="http://www.w3.org/2000/svg"><path d="M87.678 15.716V0l-30.17 20.611V5.371h-1.903v15.24L24.35.038v15.468L0 9.277v98.275l24.35-5.962v12.439l31.255-18.897v13.715h1.903V95.151l30.17 18.935v-12.858l25.435 6.248V9.201l-25.435 6.515zM24.35 99.532l-22.448 5.506V11.696l22.448 5.715v82.121zm3.805-92.408l23.037 15.24-23.037-5.905V7.124zm0 100.066v-6.629l18.49-4.553-18.49 11.182zm27.45-50.747H53v1.905h2.606v32.231l-3.5 2.134-23.95 5.886V58.367h5.84v-1.905h-5.84V18.363l27.45 7.03v31.05zm28.269 50.671l-17.92-11.24 17.92 4.401v6.839zm0-50.671h-5.536v1.905h5.536V98.35l-23.056-5.715-3.31-2.076V58.367h1.902v-1.905h-1.902v-31.07l26.366-6.743v37.794zm0-39.775l-22.2 5.715 22.2-15.24v9.525zm27.336 88.37l-23.532-5.715V17.659l23.532-6.02v93.399z" fill="#fff"/><path d="M46.664 56.462h-6.335v1.905h6.335v-1.905zm25.339 0h-6.335v1.905h6.335v-1.905zm22.923 6.801l1.332 1.333 7.038-7.048-6.79-6.8-1.352 1.352 4.452 4.457h-9.95v1.905h10.045l-4.775 4.8zm-72.821-6.801H11.623v1.905h10.482v-1.905z" fill="#fff"/></svg>