<svg width="118" height="96" viewBox="0 0 118 96" fill="none" xmlns="http://www.w3.org/2000/svg">
<path d="M36.2241 74.1848L37.6182 35.9092L54.1966 63.6043L75.2646 46.7399L57.7068 44.0734L69.045 24.7283L47.9484 33.0568L37.6325 0L25.8939 35.2515L4.57568 30.9693L36.2241 74.1848Z" fill="#FC3F34"/>
<path d="M117.114 28.3884L81.1836 31.3338C81.0076 31.3493 80.8413 31.4217 80.71 31.5399C80.5786 31.6582 80.4893 31.8159 80.4554 31.9894C80.4215 32.1629 80.4449 32.3426 80.5221 32.5016C80.5993 32.6606 80.7261 32.7902 80.8834 32.8708C84.8123 34.6919 88.4309 37.1188 91.6068 40.0627L36.1952 84.2361L9.07203 51.1722L0 56.8914L29.6396 95.1169H40.9421L98.0909 49.6495C99.5854 53.5449 100.494 57.6406 100.786 61.8027C100.804 61.9791 100.879 62.1447 101 62.2745C101.121 62.4042 101.281 62.4911 101.456 62.5218C101.63 62.5525 101.81 62.5254 101.968 62.4447C102.126 62.364 102.253 62.2339 102.33 62.0744L117.936 29.5251C117.991 29.3952 118.011 29.2535 117.995 29.1136C117.978 28.9738 117.927 28.8404 117.844 28.7263C117.761 28.6122 117.651 28.5212 117.523 28.4621C117.396 28.4029 117.255 28.3776 117.114 28.3884Z" fill="#FC3F34"/>
</svg>
