<svg width="79" height="91" viewBox="0 0 79 91" fill="none" xmlns="http://www.w3.org/2000/svg">
<path d="M37.4411 9.37961C41.2279 9.37961 44.8982 9.96219 48.3354 11.0108V0H26.5273V10.9914C29.984 9.94277 33.6349 9.36019 37.4217 9.36019L37.4411 9.37961Z" fill="#FC3F34"/>
<path d="M72.1818 25.7883L78.5319 19.4188L71.5021 12.4083L65.0742 18.8556C67.7347 20.8364 70.1233 23.1667 72.1818 25.7883Z" fill="#FC3F34"/>
<path d="M74.1436 45.4022C70.9782 29.9249 58.2584 17.9625 42.4315 15.8458C42.0626 15.7875 41.6936 15.7098 41.3246 15.671C40.6838 15.6127 40.0041 15.5933 39.3633 15.5739C38.7613 15.5351 38.1593 15.4768 37.5379 15.4768C37.5379 15.4768 37.4796 15.4768 37.4602 15.4768C21.2643 15.4768 7.49592 25.7885 2.27208 40.1784C2.17498 40.4308 2.07788 40.6833 2.0002 40.9357C1.80601 41.4989 1.63123 42.0621 1.47587 42.6447C1.30109 43.2661 1.14574 43.8875 0.990383 44.5283C0.893285 44.975 0.77678 45.4411 0.699102 45.9071C0.524327 46.8198 0.388388 47.7326 0.271872 48.6647C0.233033 48.956 0.213607 49.2667 0.174768 49.558C0.0776708 50.6843 0 51.8106 0 52.937C0 54.743 0.174778 56.5102 0.427231 58.2385C3.01002 76.4151 18.5844 90.3972 37.4602 90.3972C56.3359 90.3972 71.9103 76.4151 74.4931 58.2385C74.7456 56.4907 74.9204 54.743 74.9204 52.937C74.9204 50.3542 74.6485 47.8491 74.163 45.4022H74.1436ZM37.5184 33.032L37.4213 33.3427L37.5184 52.3738C37.5184 52.8787 36.9747 53.1894 36.5474 52.937L31.8674 50.2377L11.574 38.5083L9.92336 37.4208C15.3608 27.8276 25.6531 21.3221 37.4602 21.3221C37.4796 21.3221 37.5184 21.3221 37.5379 21.3221V33.0514L37.5184 33.032Z" fill="#FC3F34"/>
</svg>
