<svg width="60" height="56" viewBox="0 0 60 56" fill="none" xmlns="http://www.w3.org/2000/svg">
<path d="M24.6779 40.8383L10.1104 26.1889L15.887 20.2613L27.487 31.926L54.0768 3.78298L60 9.55575L30.5249 40.7608L24.6721 40.8383H24.6779ZM46.9104 27.72C46.9104 27.8153 46.9162 27.9047 46.9162 28C46.9162 38.8426 38.2367 47.6596 27.5633 47.6596C16.8898 47.6596 8.21034 38.8426 8.21034 28C8.21034 17.1574 16.8898 8.34043 27.5633 8.34043C32.6478 8.34043 37.2749 10.3421 40.7292 13.6068L46.4178 7.58383C41.4857 2.8834 34.8588 0 27.5633 0C12.339 0 0 12.5345 0 28C0 43.4655 12.339 56 27.5633 56C42.7876 56 55.1266 43.4655 55.1266 28C55.1266 25.2834 54.7395 22.6621 54.0299 20.1779L46.9104 27.714V27.72Z" fill="black"/>
</svg>
