<svg width="46" height="51" viewBox="0 0 46 51" fill="none" xmlns="http://www.w3.org/2000/svg">
<path d="M31.0534 0H8.90157V8.70411H0V22.2214H8.90157V50.2612H46.0001V14.9467L31.0534 0ZM32.2247 6.89552L39.1045 13.7753H32.2247V6.89552ZM41.961 46.2244H12.9406V22.2236H24.4002V8.70635H12.9406V4.04127H28.1857V15.7971L30.2052 17.8166H41.961V46.2267V46.2244Z" fill="black"/>
<path d="M39.4678 26.6396H15.4333V29.5567H39.4678V26.6396Z" fill="black"/>
<path d="M39.4678 32.9219H15.4333V35.839H39.4678V32.9219Z" fill="black"/>
<path d="M39.4678 39.2041H15.4333V42.1212H39.4678V39.2041Z" fill="black"/>
<path d="M4.42505 18.8848V12.8711H6.91578C7.36905 12.8711 7.77296 12.9519 8.12749 13.1112C8.48203 13.2705 8.76252 13.5039 8.96447 13.8068C9.16866 14.1097 9.26964 14.4755 9.26964 14.9018C9.26964 15.3282 9.1754 15.7007 8.98691 16.0036C8.79842 16.3065 8.52466 16.5354 8.16788 16.6947C7.8111 16.854 7.38027 16.9326 6.87764 16.9326H6.00476V18.8825H4.42505V18.8848ZM6.00476 15.6244H6.82154C7.09305 15.6244 7.30622 15.5705 7.45881 15.465C7.61139 15.3596 7.68769 15.1801 7.68769 14.9288C7.68769 14.6774 7.60915 14.4889 7.44983 14.3812C7.29052 14.2735 7.08408 14.2197 6.82827 14.2197H6.00251V15.6244H6.00476Z" fill="#FF3D29"/>
<path d="M10.1379 18.8848V12.8711H12.2607C12.8935 12.8711 13.4477 12.999 13.9257 13.2503C14.4014 13.5039 14.7738 13.8562 15.0386 14.3094C15.3034 14.7627 15.4358 15.2855 15.4358 15.8779C15.4358 16.3245 15.3595 16.7329 15.2092 17.1031C15.0588 17.4733 14.8412 17.7897 14.5629 18.0545C14.2847 18.3193 13.9503 18.5235 13.5599 18.6693C13.1695 18.8152 12.7386 18.887 12.2629 18.887H10.1402L10.1379 18.8848ZM11.7176 17.4105H12.1978C12.4335 17.4105 12.6466 17.3791 12.8374 17.3163C13.0303 17.2534 13.1964 17.157 13.3355 17.0268C13.4746 16.8967 13.5846 16.7373 13.6609 16.5466C13.7372 16.3559 13.7753 16.1337 13.7753 15.8779C13.7753 15.5391 13.708 15.2564 13.5756 15.0275C13.4432 14.7986 13.257 14.6258 13.0214 14.5114C12.7857 14.3969 12.512 14.3386 12.1978 14.3386H11.7176V17.4105Z" fill="#FF3D29"/>
<path d="M16.4275 18.8848V12.8711H20.4688V14.3094H18.0072V15.391H20.2017V16.7732H18.0072V18.8825H16.4275V18.8848Z" fill="#FF3D29"/>
</svg>
