<svg width="468" height="47" viewBox="0 0 468 47" fill="none" xmlns="http://www.w3.org/2000/svg">
<path d="M0 17.9406V45.6394L48.1019 14.5578L32.0002 36.3741C29.165 40.2163 31.9119 45.6394 36.6815 45.6394H52.7567V17.3754C52.7567 13.8777 49.9214 11.0336 46.4149 11.0336H6.90703C3.09138 11.0336 0 14.125 0 17.9406Z" fill="#FF3D29"/>
<path d="M61.2358 0.999867L47.0773 5.46029C46.7505 5.56628 46.7681 6.02557 47.0949 6.10506C48.9144 6.53786 51.679 7.32395 53.9136 9.40843C56.2013 11.5371 57.1375 14.1515 57.7205 15.918C57.8264 16.2448 58.2946 16.2183 58.3652 15.8827L61.6598 1.39733C61.7216 1.14119 61.4743 0.920374 61.227 0.999867H61.2358Z" fill="#FF3D29"/>
<path d="M116.89 18.2498V45.3745H103.385V25.9076H89.0406V45.3745H75.5356V18.2498H116.881H116.89ZM248.415 18.2498H208.836V25.9076H221.873V45.3745H235.378V25.9076H248.415V18.2498ZM206.451 31.8077C206.451 43.8818 198.846 46.1164 185.783 46.1164C172.72 46.1164 165.115 43.8818 165.115 31.8077C165.115 19.7336 172.72 17.499 185.783 17.499C198.846 17.499 206.451 19.7336 206.451 31.8077ZM192.946 31.8077C192.779 28.6898 192.372 25.1833 185.774 25.1833C179.176 25.1833 178.77 28.6898 178.602 31.8077C178.77 34.9256 179.176 38.4321 185.774 38.4321C192.372 38.4321 192.779 34.9256 192.946 31.8077ZM161.034 29.3258C161.034 41.3998 150.815 40.3134 140.366 40.4017H135.482V45.3656H121.977V18.2409H140.358C150.806 18.3293 161.026 17.2517 161.026 29.3169L161.034 29.3258ZM147.53 29.3258C147.53 26.2079 146.452 25.8987 140.358 25.8987H135.473V32.7439H140.358C146.452 32.7439 147.53 32.4436 147.53 29.3169V29.3258ZM422.618 31.8077C422.618 43.8818 415.014 46.1164 401.95 46.1164C388.887 46.1164 381.282 43.8818 381.282 31.8077C381.282 19.7336 388.887 17.499 401.95 17.499C415.014 17.499 422.618 19.7336 422.618 31.8077ZM409.114 31.8077C408.946 28.6898 408.539 25.1833 401.942 25.1833C395.344 25.1833 394.937 28.6898 394.77 31.8077C394.937 34.9256 395.344 38.4321 401.942 38.4321C408.539 38.4321 408.946 34.9256 409.114 31.8077ZM377.131 29.3258C377.131 41.3998 366.912 40.3134 356.463 40.4017H351.578V45.3656H338.074V18.2409H356.454C366.903 18.3293 377.122 17.2517 377.122 29.3169L377.131 29.3258ZM363.626 29.3258C363.626 26.2079 362.548 25.8987 356.454 25.8987H351.57V32.7439H356.454C362.548 32.7439 363.626 32.4436 363.626 29.3169V29.3258ZM454.283 34.3691C453.744 36.5773 452.225 38.4409 447.429 38.4409C440.84 38.4409 440.425 34.9344 440.257 31.8165C440.425 28.6987 440.831 25.1921 447.429 25.1921C452.481 25.1921 453.903 27.259 454.363 29.6261H468C467.099 19.4687 459.653 17.5078 447.42 17.5078C434.357 17.5078 426.752 19.7425 426.752 31.8165C426.752 43.8906 434.357 46.1252 447.42 46.1252C459.503 46.1252 466.905 44.2086 467.956 34.378H454.274L454.283 34.3691ZM287.446 25.9076V18.2498H253.502V45.3745H287.446V37.7167H267.007V33.9363H285.891V29.1844H267.007V25.8987H287.446V25.9076ZM306.02 18.2498H292.515V45.3745H304.254L312.194 32.7439H306.02V18.2498ZM320.364 18.2498L312.424 30.8803H318.598V45.3745H332.103V18.2498H320.373H320.364ZM323.279 9.54091H301.348V15.7237H323.279V9.54091Z" fill="white"/>
</svg>
