<svg width="1800" height="174" viewBox="0 0 1800 174" fill="none" xmlns="http://www.w3.org/2000/svg">
<path d="M0 65.2218V171.756L185.007 52.2108L123.078 136.12C112.173 150.897 122.738 171.756 141.083 171.756H202.91V63.0476C202.91 49.595 192.005 38.6562 178.519 38.6562H26.5655C11.8899 38.6562 0 50.5462 0 65.2218Z" fill="white"/>
<path d="M235.522 0.0632965L181.066 17.2188C179.809 17.6264 179.877 19.3929 181.134 19.6987C188.132 21.3633 198.765 24.3867 207.36 32.4039C216.158 40.591 219.759 50.6465 222.001 57.4407C222.409 58.6977 224.21 58.5957 224.481 57.3048L237.153 1.592C237.39 0.606836 236.439 -0.242445 235.488 0.0632965H235.522Z" fill="white"/>
<path d="M449.575 66.4097V170.735H397.633V95.8628H342.464V170.735H290.522V66.4097H449.541H449.575ZM955.441 66.4097H803.216V95.8628H853.357V170.735H905.3V95.8628H955.441V66.4097ZM794.044 118.556C794.044 164.994 764.794 173.589 714.551 173.589C664.308 173.589 635.058 164.994 635.058 118.556C635.058 72.1169 664.308 63.5222 714.551 63.5222C764.794 63.5222 794.044 72.1169 794.044 118.556ZM742.102 118.556C741.456 106.564 739.894 93.0771 714.517 93.0771C689.141 93.0771 687.578 106.564 686.932 118.556C687.578 130.547 689.141 144.034 714.517 144.034C739.894 144.034 741.456 130.547 742.102 118.556ZM619.364 109.01C619.364 155.448 580.059 151.27 539.871 151.61H521.085V170.701H469.143V66.3757H539.837C580.025 66.7155 619.33 62.571 619.33 108.976L619.364 109.01ZM567.422 109.01C567.422 97.0178 563.277 95.8288 539.837 95.8288H521.051V122.157H539.837C563.277 122.157 567.422 121.002 567.422 108.976V109.01ZM1625.46 118.556C1625.46 164.994 1596.21 173.589 1545.96 173.589C1495.72 173.589 1466.47 164.994 1466.47 118.556C1466.47 72.1169 1495.72 63.5222 1545.96 63.5222C1596.21 63.5222 1625.46 72.1169 1625.46 118.556ZM1573.51 118.556C1572.87 106.564 1571.31 93.0771 1545.93 93.0771C1520.55 93.0771 1518.99 106.564 1518.34 118.556C1518.99 130.547 1520.55 144.034 1545.93 144.034C1571.31 144.034 1572.87 130.547 1573.51 118.556ZM1450.5 109.01C1450.5 155.448 1411.2 151.27 1371.01 151.61H1352.23V170.701H1300.28V66.3757H1370.98C1411.17 66.7155 1450.47 62.571 1450.47 108.976L1450.5 109.01ZM1398.56 109.01C1398.56 97.0178 1394.42 95.8288 1370.98 95.8288H1352.19V122.157H1370.98C1394.42 122.157 1398.56 121.002 1398.56 108.976V109.01ZM1747.24 128.407C1745.17 136.9 1739.33 144.068 1720.88 144.068C1695.54 144.068 1693.94 130.581 1693.3 118.59C1693.94 106.598 1695.5 93.1111 1720.88 93.1111C1740.31 93.1111 1745.78 101.06 1747.55 110.165H1800C1796.54 71.0977 1767.9 63.5561 1720.85 63.5561C1670.6 63.5561 1641.35 72.1509 1641.35 118.59C1641.35 165.028 1670.6 173.623 1720.85 173.623C1767.32 173.623 1795.79 166.251 1799.83 128.441H1747.21L1747.24 128.407ZM1105.56 95.8628V66.4097H975.009V170.735H1105.56V141.282H1026.95V126.743H1099.58V108.466H1026.95V95.8288H1105.56V95.8628ZM1177 66.4097H1125.06V170.735H1170.21L1200.75 122.157H1177V66.4097ZM1232.17 66.4097L1201.63 114.989H1225.38V170.735H1277.32V66.4097H1232.2H1232.17ZM1243.38 32.9141H1159.03V56.6939H1243.38V32.9141Z" fill="white"/>
</svg>
