<svg width="127" height="126" viewBox="0 0 127 126" fill="none" xmlns="http://www.w3.org/2000/svg">
<path d="M5.85889 111.438C7.39086 112.661 9.01966 113.757 10.729 114.715L11.6611 113.057C10.0431 112.152 8.50342 111.114 7.0576 109.952L5.85889 111.438Z" fill="white"/>
<path d="M9.22607 88.4838L10.2344 90.103C11.8178 89.1259 13.4638 88.2541 15.1616 87.4933L14.3623 85.7598C12.5966 86.5627 10.8814 87.4723 9.22607 88.4838Z" fill="white"/>
<path d="M15.9414 117.267C17.6345 117.972 19.4419 118.658 21.3632 119.305L21.9526 117.401C20.0503 116.772 18.3196 116.105 16.6836 115.496L15.9414 117.267Z" fill="white"/>
<path d="M38.1416 123.325C40.0439 123.63 41.9463 123.896 43.8486 124.144L44.0771 122.239C42.1748 122.011 40.2724 121.744 38.3701 121.458L38.1416 123.325Z" fill="white"/>
<path d="M26.918 120.944C28.7252 121.42 30.6084 121.877 32.5298 122.277L32.9101 120.372C31.0078 119.972 29.1057 119.534 27.4126 119.077L26.918 120.944Z" fill="white"/>
<path d="M104.742 82.75C102.973 82.1785 101.109 81.6452 99.2065 81.1499L98.731 83.0548C100.633 83.5311 102.422 84.0454 104.153 84.6169L104.742 82.75Z" fill="white"/>
<path d="M115.434 87.1885C113.72 86.2738 111.961 85.4473 110.164 84.7122L109.46 86.4837C111.196 87.1828 112.892 87.9778 114.54 88.8649L115.434 87.1885Z" fill="white"/>
<path d="M36.791 81.2453L36.4487 79.3403C34.5464 79.6642 32.644 80.0452 30.7417 80.4643L31.1792 82.3692C33.0054 81.8549 34.8887 81.4929 36.791 81.2453Z" fill="white"/>
<path d="M48.0151 79.6449L47.8437 77.74C45.9414 77.9305 44.0391 78.1401 42.1367 78.3877L42.3838 80.2926C44.2291 80.045 46.1128 79.8164 48.0151 79.6449Z" fill="white"/>
<path d="M0.951172 96.9034L2.68213 97.6845C3.45329 96.079 4.52519 94.6369 5.83984 93.4366L4.52734 92.0459C3.0348 93.4201 1.82078 95.0693 0.951172 96.9034Z" fill="white"/>
<path d="M0 101.152C0.0466244 103.252 0.708103 105.292 1.90233 107.019L3.5 106.009C2.53792 104.57 2.00954 102.883 1.97804 101.152H0Z" fill="white"/>
<path d="M115.985 112.638L116.956 114.277C118.647 113.287 120.245 112.146 121.73 110.867L120.475 109.438C119.079 110.641 117.577 111.712 115.985 112.638Z" fill="white"/>
<path d="M59.2573 77.0732C57.355 77.0732 55.4526 77.2066 53.5503 77.3018L53.6645 79.2067C55.5669 79.0925 57.4692 79.0163 59.3715 78.9782L59.2573 77.0732Z" fill="white"/>
<path d="M120.361 90.3315L119.219 91.8555C120.665 92.9337 121.947 94.2171 123.024 95.6653L124.565 94.5414C123.375 92.9414 121.959 91.5233 120.361 90.3315Z" fill="white"/>
<path d="M111.001 115.172L110.278 115.476L92.5294 81.607L93.2144 81.7404L93.5757 79.8354C92.8719 79.683 92.1297 79.5687 91.4068 79.4354L70.4811 39.6796C72.3409 38.2852 73.7496 36.3735 74.5315 34.1827C75.3134 31.992 75.4343 29.6192 74.8784 27.3603C74.3226 25.1014 73.1147 23.0563 71.4058 21.4802C69.697 19.904 67.5625 18.8664 65.2688 18.4969V0H61.4641V18.4969C58.6974 18.9593 56.1845 20.3894 54.3717 22.5327C52.5588 24.6761 51.5637 27.3939 51.5637 30.2027C51.5637 33.0115 52.5588 35.7292 54.3717 37.8726C56.1845 40.016 58.6974 41.4459 61.4641 41.9083V98.9418L21.6674 84.8645C22.961 84.4263 24.2738 84.0072 25.6435 83.6071L25.1298 81.7022C23.2275 82.2356 21.3249 82.8451 19.6318 83.4547L19.8793 84.1597L8.12304 79.9879L7.49512 81.7785L61.4641 100.828V100.961H61.8825L106.436 116.753L105.655 117.039L106.283 118.829C107.291 118.486 108.281 118.105 109.232 117.743L120.646 121.782L121.293 119.991L111.572 116.543L111.001 115.172ZM55.4529 30.2502C55.4412 28.8978 55.7695 27.5643 56.4078 26.3725C57.046 25.1806 57.9734 24.1688 59.1047 23.4302C60.2361 22.6916 61.535 22.2501 62.8815 22.1463C64.2281 22.0424 65.5793 22.2796 66.8102 22.8361C68.0412 23.3925 69.1128 24.2502 69.9257 25.3302C70.7386 26.4102 71.2669 27.6778 71.462 29.016C71.6572 30.3542 71.5127 31.7202 71.0422 32.9878C70.5716 34.2555 69.7899 35.3842 68.7692 36.2698C68.3295 36.6491 67.8513 36.981 67.3425 37.2603L67.0954 37.3937C66.5588 37.6763 65.9902 37.8938 65.4021 38.0414C64.7805 38.2043 64.142 38.2938 63.4997 38.3081C61.3656 38.3081 59.319 37.4591 57.8099 35.948C56.3008 34.4369 55.4529 32.3873 55.4529 30.2502ZM65.4021 78.9401C67.1902 78.9401 68.9785 78.9401 70.7287 79.0734V77.1685C68.9405 77.1685 67.1331 77.0542 65.3068 77.0351V41.9465C65.9519 41.8531 66.5882 41.7065 67.2092 41.5084L87.6593 80.5403V80.7307H87.8116L105.503 114.505L65.364 100.294L65.4021 78.9401Z" fill="white"/>
<path d="M126.886 100.294L124.983 100.485C124.983 100.733 124.983 100.98 124.983 101.228C124.966 102.691 124.58 104.126 123.861 105.4L125.535 106.314C126.406 104.759 126.87 103.01 126.886 101.228C126.924 100.847 126.905 100.523 126.886 100.294Z" fill="white"/>
<path d="M94.8691 120.239L95.2686 122.144C97.1709 121.744 99.0736 121.267 100.862 120.772L100.348 118.867C98.598 119.343 96.7525 119.82 94.8691 120.239Z" fill="white"/>
<path d="M61.0454 123.382V125.287H66.7524V123.382C64.8501 123.401 62.9287 123.401 61.0454 123.382Z" fill="white"/>
<path d="M72.4023 123.153L72.4976 125.058C74.3999 124.944 76.3022 124.811 78.2046 124.639L78.0336 122.734C76.182 122.925 74.3047 123.065 72.4023 123.153Z" fill="white"/>
<path d="M76.3784 79.3402C78.2808 79.4926 80.1831 79.6831 82.0854 79.8926L82.3139 77.9877C80.4116 77.7591 78.5093 77.5877 76.6069 77.4353L76.3784 79.3402Z" fill="white"/>
<path d="M83.6836 122.144L83.9307 124.049C85.833 123.801 87.7353 123.515 89.6377 123.211L89.3144 121.306C87.4692 121.63 85.605 121.896 83.6836 122.144Z" fill="white"/>
<path d="M49.5557 124.715C51.458 124.887 53.3603 125.001 55.2627 125.096L55.3579 123.192C53.4555 123.192 51.5532 122.982 49.6509 122.83L49.5557 124.715Z" fill="white"/>
</svg>
