<svg width="100" height="144" viewBox="0 0 100 144" fill="none" xmlns="http://www.w3.org/2000/svg">
<path d="M94.6411 4.40023C91.8977 1.78826 88.2311 0.37335 84.4467 0.466213C80.6624 0.559076 77.0695 2.15214 74.4571 4.89553C73.098 6.33701 72.0571 8.04868 71.4016 9.91933C70.7461 11.79 70.4908 13.7778 70.6525 15.7536L39.2263 48.804C36.2657 47.6346 33.1241 46.99 29.9427 46.8991V16.6489L28.9916 15.6964H1.92138V11.2579H0.019043V17.7919H1.92138V17.6013H27.9642V131.135H1.92138V126.373H0.019043V132.087H0.97021V133.04H28.9154L29.8666 132.087V102.028C34.5097 101.876 39.0392 100.549 43.0319 98.1712C47.0247 95.7932 50.3511 92.4412 52.7006 88.428C55.0501 84.4149 56.346 79.8713 56.4681 75.2209C56.5902 70.5705 55.5344 65.965 53.3986 61.8337L84.4825 29.1452H84.7871C87.6435 29.1517 90.436 28.2996 92.8033 26.699C95.1706 25.0985 97.0034 22.8232 98.0649 20.1678C99.1265 17.5124 99.3679 14.5991 98.7574 11.805C98.147 9.01079 96.7129 6.46444 94.6411 4.49546V4.40023ZM29.9618 98.1225V50.5946C36.1345 50.7697 41.9959 53.3482 46.3002 57.7822C50.6044 62.2161 53.0122 68.156 53.0122 74.3396C53.0122 80.5232 50.6044 86.4629 46.3002 90.8969C41.9959 95.3308 36.1345 97.9093 29.9618 98.0844V98.1225ZM51.3821 58.3858C49.103 55.1966 46.18 52.5226 42.8025 50.5374L71.6417 20.2111C72.3983 22.0666 73.5387 23.7406 74.988 25.1229C76.4373 26.5052 78.1628 27.5644 80.0504 28.2309L51.3821 58.3858ZM92.4155 22.0017C91.4684 23 90.3339 23.8015 89.0772 24.3604C87.8204 24.9194 86.466 25.2248 85.0914 25.2592C82.3168 25.3116 79.6326 24.2719 77.6153 22.3637C75.6042 20.4438 74.4351 17.8041 74.3638 15.0227C74.2925 12.2412 75.3249 9.54499 77.2349 7.52434C79.1573 5.51058 81.7966 4.33961 84.5777 4.26688H84.8443C86.8972 4.26314 88.906 4.86317 90.6214 5.99252C92.3369 7.12186 93.6835 8.73079 94.4939 10.6196C95.3043 12.5084 95.543 14.5939 95.1803 16.6174C94.8176 18.6408 93.8695 20.5131 92.4536 22.0017H92.4155Z" fill="white"/>
<path d="M1.90233 68.4058H0V74.1205H1.90233V68.4058Z" fill="white"/>
<path d="M1.90233 56.9763H0V62.6911H1.90233V56.9763Z" fill="white"/>
<path d="M1.90233 45.5466H0V51.2614H1.90233V45.5466Z" fill="white"/>
<path d="M1.90233 79.8352H0V85.55H1.90233V79.8352Z" fill="white"/>
<path d="M1.90233 91.2649H0V96.9797H1.90233V91.2649Z" fill="white"/>
<path d="M1.90233 22.6877H0V28.4025H1.90233V22.6877Z" fill="white"/>
<path d="M1.90233 34.1172H0V39.832H1.90233V34.1172Z" fill="white"/>
<path d="M1.90233 102.694H0V108.409H1.90233V102.694Z" fill="white"/>
<path d="M1.90233 114.124H0V119.839H1.90233V114.124Z" fill="white"/>
<path d="M1.90233 138.031H0V143.746H1.90233V138.031Z" fill="white"/>
<path d="M1.90233 0H0V5.71477H1.90233V0Z" fill="white"/>
</svg>
