<svg width="114" height="115" viewBox="0 0 114 115" fill="none" xmlns="http://www.w3.org/2000/svg">
<path d="M87.6783 15.7156V0L57.5075 20.6113V5.3719H55.6052V20.6113L24.35 0.0381357V15.5061L0 9.27697V107.552L24.35 101.59V114.029L55.6052 95.1319V108.847H57.5075V95.151L87.6783 114.086V101.228L113.113 107.476V9.20082L87.6783 15.7156ZM24.35 99.5323L1.90233 105.038V11.6963L24.35 17.411V99.5323ZM28.1546 7.1244L51.1916 22.3638L28.1546 16.4586V7.1244ZM28.1546 107.19V100.561L46.6453 96.0082L28.1546 107.19ZM55.6052 56.4429H52.9988V58.3478H55.6052V90.5791L52.1047 92.7128L28.1546 98.5989V58.3669H33.9945V56.462H28.1546V18.3635L55.6052 25.3927V56.4429ZM83.8736 107.114L65.9538 95.8749L83.8736 100.275V107.114ZM83.8736 56.4429H78.338V58.3478H83.8736V98.3513L60.8176 92.6365L57.5075 90.5602V58.3669H59.4098V56.462H57.5075V25.3927L83.8736 18.6493V56.4429ZM83.8736 16.6681L61.6735 22.3829L83.8736 7.14347V16.6681ZM111.21 105.038L87.6783 99.3228V17.6587L111.21 11.6391V105.038Z" fill="white"/>
<path d="M46.6639 56.462H40.3291V58.367H46.6639V56.462Z" fill="white"/>
<path d="M72.0032 56.462H65.6685V58.367H72.0032V56.462Z" fill="white"/>
<path d="M94.9262 63.2627L96.2578 64.5961L103.296 57.5479L96.5051 50.7473L95.1545 52.0998L99.6059 56.5573H89.6567V58.4623H99.7011L94.9262 63.2627Z" fill="white"/>
<path d="M22.1049 56.462H11.623V58.367H22.1049V56.462Z" fill="white"/>
</svg>
