<svg width="117" height="109" viewBox="0 0 117 109" fill="none" xmlns="http://www.w3.org/2000/svg">
<path d="M6.8667 83.213C7.74177 84.9464 8.769 86.6419 9.68212 88.2801L11.3183 87.2705C10.3291 85.6894 9.41609 84.032 8.56004 82.3557L6.8667 83.213Z" fill="white"/>
<path d="M31.6543 105.348L31.1978 107.253C32.3921 107.556 33.6185 107.716 34.8506 107.729C35.6619 107.724 36.4705 107.641 37.2661 107.482L36.8857 105.577C35.1463 105.886 33.3601 105.808 31.6543 105.348Z" fill="white"/>
<path d="M2.79638 49.934L0.894041 49.4387C0.396031 51.3457 0.0964588 53.2991 0 55.2678H1.90233C2.02331 53.4646 2.32275 51.6779 2.79638 49.934Z" fill="white"/>
<path d="M12.9551 93.0614C14.1468 94.6171 15.4166 96.1113 16.7597 97.538L18.1675 96.2236C16.8904 94.8562 15.6898 93.419 14.5718 91.9185L12.9551 93.0614Z" fill="white"/>
<path d="M12.9926 40.7142H13.1635V38.8093H12.9355C11.2136 38.7901 9.50946 39.1613 7.95116 39.8951C6.08491 40.8068 4.49577 42.201 3.34766 43.9336L4.9077 45.0194C5.76508 43.6729 6.95358 42.5698 8.3594 41.8159C9.76521 41.062 11.3411 40.6826 12.9355 40.7142H12.9926Z" fill="white"/>
<path d="M2.09228 60.9446L0.189941 61.1161C0.373054 63.035 0.659187 64.9426 1.04636 66.8308L2.9487 66.4498C2.5617 64.6321 2.27554 62.7941 2.09228 60.9446Z" fill="white"/>
<path d="M2.51123 72.4882C3.08193 74.3931 3.72872 76.1266 4.41356 77.9363L6.16356 77.2314C5.4597 75.4599 4.81291 73.6883 4.26123 71.9167L2.51123 72.4882Z" fill="white"/>
<path d="M20.9062 101.538C22.3991 102.805 24.0036 103.934 25.7002 104.91L26.6513 103.253C25.0476 102.325 23.5262 101.261 22.1045 100.072L20.9062 101.538Z" fill="white"/>
<path d="M42.041 65.4973L40.3291 66.2974C41.1091 68.0118 41.8322 69.7644 42.479 71.4979L44.2671 70.8501C43.6012 69.0595 42.859 67.2498 42.041 65.4973Z" fill="white"/>
<path d="M46.0552 76.3745L44.1528 76.8697C44.6284 78.7746 45.0281 80.5653 45.3135 82.3559L47.2158 82.0702C46.9114 80.2034 46.5117 78.2985 46.0552 76.3745Z" fill="white"/>
<path d="M18.376 41.857C20.0748 42.5473 21.6896 43.4292 23.1889 44.4858L24.2734 42.9048C22.651 41.7768 20.9094 40.8313 19.0801 40.0854L18.376 41.857Z" fill="white"/>
<path d="M45.8838 87.9372C45.8838 88.3563 45.8838 88.7755 45.8838 89.1946C45.8851 90.6274 45.7964 92.059 45.6177 93.4806L47.52 93.7283C47.7146 92.225 47.8097 90.7104 47.8052 89.1946C47.8052 88.7564 47.8052 88.3183 47.8052 87.8611L45.8838 87.9372Z" fill="white"/>
<path d="M28.8203 46.6006L27.5078 47.9911C28.8512 49.2709 30.1215 50.6256 31.3125 52.0486L32.7583 50.8104C31.5229 49.3366 30.2082 47.9313 28.8203 46.6006Z" fill="white"/>
<path d="M34.7744 56.525C35.8207 58.0299 36.8096 59.6301 37.7417 61.2873L39.397 60.3539C38.4458 58.6395 37.3993 57.0012 36.334 55.4392L34.7744 56.525Z" fill="white"/>
<path d="M107.159 40.8475C100.539 26.9797 91.4833 15.2835 81.6672 7.89236C71.4707 0.272662 61.5978 -1.95616 53.8554 1.75844C46.5123 5.2635 42.289 13.3785 41.2807 24.027C35.6879 21.3982 30.4374 21.0363 26.062 23.1127C20.0507 25.9891 16.5505 33.0754 16.2081 43.0572C16.1915 54.2491 18.7978 65.2889 23.8174 75.2886C28.3054 85.1384 34.9425 93.8546 43.2402 100.795C42.717 101.672 42.077 102.473 41.3378 103.177L42.6694 104.548C43.4577 103.779 44.148 102.916 44.7241 101.977C48.9582 105.377 54.144 107.374 59.5624 107.691C61.6939 107.706 63.8012 107.237 65.7259 106.32C69.0349 104.606 71.6198 101.76 73.0115 98.3C80.6208 104.929 88.6867 108.682 95.8395 108.682C98.6269 108.705 101.384 108.1 103.905 106.91C119.847 99.3668 121.217 70.3358 107.159 40.8475ZM64.9647 104.624C59.7333 107.12 52.9041 105.558 45.6752 100.281C45.8114 100.022 45.932 99.7546 46.0366 99.481L44.2866 98.7573C44.2437 98.8688 44.1927 98.9769 44.1342 99.0811C36.2148 92.3427 29.8755 83.9396 25.5674 74.4695C20.6648 64.7541 18.1168 54.0188 18.1295 43.1335C18.4529 33.8946 21.5534 27.3987 26.899 24.8461C28.5695 24.055 30.3968 23.6513 32.2446 23.6651C35.3491 23.7664 38.3885 24.5811 41.1284 26.0462C40.4435 38.0282 43.5825 52.8676 50.7353 67.8403C55.7944 78.8229 62.8962 88.7401 71.6609 97.0619C70.4486 100.331 68.0604 103.028 64.9647 104.624ZM72.9168 93.0234C65.1439 85.2521 58.7948 76.1736 54.1596 66.2021C47.7487 52.7533 44.6481 39.2474 44.8573 28.2369L46.6264 29.4941C55.0816 36.3346 61.8181 45.0639 66.2962 54.982C73.0115 69.0594 75.1615 83.2321 72.9168 93.0234ZM102.384 103.481C94.6224 107.196 84.2733 103.386 74.4192 94.4331C77.1586 84.0893 75.1043 69.0404 68.0086 54.1629C63.4015 43.9663 56.4683 34.9948 47.7675 27.9702C46.8163 27.2654 45.8652 26.6177 44.933 26.0653C45.5418 15.9692 49.0802 8.29235 55.4911 5.22542C57.484 4.28817 59.6625 3.8129 61.8641 3.83486C67.0955 3.83486 73.1068 6.2541 79.3845 10.9593C88.725 18.0075 97.3616 29.2084 103.715 42.5239C116.651 69.5928 116.043 96.9476 102.384 103.481Z" fill="white"/>
<path d="M21.9335 13.7404L23.2841 15.0739L30.3228 8.02568L23.5124 1.2251L22.1808 2.57759L26.6322 7.03512H0.969727V8.94004H26.7273L21.9335 13.7404Z" fill="white"/>
</svg>
